<svg xmlns="http://www.w3.org/2000/svg" width="64" height="64" viewBox="0 0 64 64" role="img" aria-labelledby="titleDesc">
  <title id="titleDesc">Favicon - Evaluador de código Arduino</title>
  <!-- Fondo circular -->
  <rect width="64" height="64" rx="12" ry="12" fill="#0b1220"/>
  <!-- Microcontrolador (chip) -->
  <rect x="8" y="18" width="48" height="28" rx="4" ry="4" fill="#15202b"/>
  <!-- Patas del chip -->
  <g fill="#17282f">
    <rect x="4" y="22" width="4" height="4" rx="1"/>
    <rect x="4" y="28" width="4" height="4" rx="1"/>
    <rect x="4" y="34" width="4" height="4" rx="1"/>
    <rect x="56" y="22" width="4" height="4" rx="1"/>
    <rect x="56" y="28" width="4" height="4" rx="1"/>
    <rect x="56" y="34" width="4" height="4" rx="1"/>
  </g>
  <!-- Línea interior (simboliza el silicio) -->
  <rect x="12" y="22" width="40" height="20" rx="3" fill="#0f1724"/>
  <!-- Símbolo de código </> -->
  <g transform="translate(0,0)" fill="#7bed9f">
    <!-- menor que -->
    <path d="M20 33.5 L14 28 L20 22.5 L21.7 24.2 L16.4 28 L21.7 31.8 Z"/>
    <!-- barra -->
    <rect x="26" y="30" width="12" height="3" rx="1.5"/>
    <!-- mayor que -->
    <path d="M44 33.5 L50 28 L44 22.5 L42.3 24.2 L47.6 28 L42.3 31.8 Z"/>
  </g>
</svg>
